<svg width="1425" height="858" viewBox="0 0 1425 858" fill="none" xmlns="http://www.w3.org/2000/svg">
<rect x="536" y="140" width="358" height="686" fill="#202024"/>
<mask id="mask0_" style="mask-type:alpha" maskUnits="userSpaceOnUse" x="536" y="140" width="358" height="540">
<rect x="536" y="140" width="358" height="540" fill="#202024"/>
</mask>
<g mask="url(#mask0_)">
<path d="M894 201.492V-256.824L714.5 -360L535 -256.824V201.492L714.5 304.674L894 201.492Z" fill="url(#paint0_linear_)"/>
<g style="mix-blend-mode:luminosity" opacity="0.4">
<path d="M536.157 99.3496V202.159L624.527 253.569L712.896 202.159V99.3496L624.527 47.9399L536.157 99.3496Z" fill="url(#paint1_linear_)"/>
<path d="M536.157 -3.46505V99.3445L624.527 150.754L712.896 99.3445V-3.46505L624.527 -54.8747L536.157 -3.46505Z" fill="url(#paint2_linear_)"/>
<path d="M712.896 202.159V99.3492L801.266 47.9395L889.635 99.3492V202.159L801.266 253.568L712.896 202.159Z" fill="url(#paint3_linear_)"/>
<path d="M889.635 -3.46505V99.3445L801.266 150.754L712.896 99.3445V-3.46505L801.266 -54.8747L889.635 -3.46505Z" fill="url(#paint4_linear_)"/>
<path d="M801.266 253.59V150.781L712.896 99.3711L624.527 150.781V253.59L712.896 305L801.266 253.59Z" fill="url(#paint5_linear_)"/>
</g>
</g>
<rect x="674" y="156" width="80" height="8" fill="#121214"/>
<rect x="682" width="64" height="158" fill="url(#paint6_linear_)"/>
<defs>
<linearGradient id="paint0_linear_" x1="535" y1="-344.234" x2="974.976" y2="-283.679" gradientUnits="userSpaceOnUse">
<stop stop-color="#FF008E"/>
<stop offset="1" stop-color="#FFCD1E"/>
</linearGradient>
<linearGradient id="paint1_linear_" x1="624.527" y1="248.84" x2="535.159" y2="97.9202" gradientUnits="userSpaceOnUse">
<stop stop-color="#8257E5"/>
<stop offset="1" stop-color="#FF008E" stop-opacity="0"/>
</linearGradient>
<linearGradient id="paint2_linear_" x1="624.527" y1="146.026" x2="535.159" y2="-4.89436" gradientUnits="userSpaceOnUse">
<stop stop-color="#8257E5"/>
<stop offset="1" stop-color="#FF008E" stop-opacity="0"/>
</linearGradient>
<linearGradient id="paint3_linear_" x1="889.635" y1="207.937" x2="712.187" y2="101.972" gradientUnits="userSpaceOnUse">
<stop stop-color="#FF008E" stop-opacity="0"/>
<stop offset="1" stop-color="#FFCD1E"/>
</linearGradient>
<linearGradient id="paint4_linear_" x1="801.266" y1="146.026" x2="890.634" y2="-4.8943" gradientUnits="userSpaceOnUse">
<stop stop-color="#8257E5"/>
<stop offset="1" stop-color="#FF008E" stop-opacity="0"/>
</linearGradient>
<linearGradient id="paint5_linear_" x1="712.896" y1="104.099" x2="802.264" y2="255.02" gradientUnits="userSpaceOnUse">
<stop stop-color="#8257E5"/>
<stop offset="1" stop-color="#FF008E" stop-opacity="0"/>
</linearGradient>
<linearGradient id="paint6_linear_" x1="643.5" y1="4.93019e-08" x2="776" y2="158" gradientUnits="userSpaceOnUse">
<stop stop-color="#FF008E"/>
<stop offset="1" stop-color="#FFCD1E"/>
</linearGradient>
</defs>
</svg>
